<svg width="61.2" height="24" viewBox="0 0 204 80" xmlns="http://www.w3.org/2000/svg"><path fill="#FFF" d="M59.752 79.404l-23.838-.002c-.855-.107-1.177-.963-1.177-1.71 0-1.07.535-1.39 1.497-1.603 1.603-.428 2.672-.749 3.1-1.924.455-1.275.64-2.39.684-5.09a57.615 57.615 0 01-.013-1.182v-13.14l.025-.014v-9.641c0-4.596-.27-11.969-7.964-11.969-2.348 0-9.941 1.143-9.941 12.786v25.258c0 2.672.32 3.74 3.955 4.702.962.214 2.031.427 2.031 1.496 0 1.924-1.39 2.03-3.314 2.03H2.78C.855 79.403 0 79.403 0 77.692c0-1.068.641-1.282 1.817-1.602 3.527-1.283 3.527-2.672 3.527-7.909v-43.85c0-2.244 0-9.262-.214-10.652-.32-1.924-.855-2.03-3.848-2.778C.213 10.687 0 9.938 0 9.084c0-1.069.106-1.176 3.313-1.818C9.513 5.877 14.75 3.741 19.88.75 20.949 0 21.163 0 21.377 0c.855 0 .855.962.855 2.244v11.22l-.107 18.276c0 1.175 0 1.709.535 1.709.107 0 .32 0 1.71-1.282 4.917-4.168 10.474-6.626 16.887-6.626 4.81 0 9.192 1.497 12.506 5.024 2.886 2.991 3.313 7.48 3.313 12.396v28.533c0 .005-.007.011-.007.016.06 2.298.591 3.299 4.012 4.204.977.217 2.063.434 2.063 1.52 0 1.956-1.436 2.17-3.392 2.17zm99.911-9.954c0-3.416 2.11-5.728 6.23-5.728 4.825 0 6.23 1.709 7.94 8.642.603 2.41 2.01 3.817 5.829 3.817 5.125 0 7.938-2.813 7.938-6.932 0-3.618-3.676-6.531-10.81-11.052-7.838-4.824-12.16-9.446-12.16-16.177 0-10.45 11.614-16.78 22.267-16.78 11.96 0 16.582 5.124 16.582 9.947 0 3.215-2.11 4.923-5.728 4.923-4.522 0-5.93-1.808-7.437-7.234-.703-2.713-2.11-3.819-4.824-3.819-4.32 0-7.236 2.211-7.236 6.23 0 3.818 3.777 6.23 12.117 11.456 7.84 4.62 11.358 9.645 11.358 15.573 0 9.745-10.51 17.684-23.677 17.684-13.163 0-18.389-5.326-18.389-10.55zm-5.875-44.176c6.143 0 11.64 5.659 9.524 10.977-.922 2.319-3.302 3.715-5.797 3.644-1.713-.05-2.94-.664-4.315-2.145l-1.082-1.296c-1.02-1.224-2.084-1.793-3.353-1.793-1.303 0-2.66.688-4.682 2.374-3.189 2.656-4.888 6.1-5.078 10.192l-.001.022.033 24.183c.053 2.332.916 3.34 4.363 4.253.986.219 2.08.438 2.08 1.533 0 1.797-1.204 2.139-2.911 2.184l-11.602.002h-11.463c-1.206 0-2.362 0-2.362-2.1 0-1.172 1.067-1.395 2.078-1.619 3.229-.854 3.903-1.794 4.025-3.812v-23.48c0-2.878-.017-9.862-.213-11.133-.32-1.923-.855-2.03-3.848-2.778-1.069-.214-1.282-.962-1.282-1.817 0-1.069.106-1.175 3.313-1.817 6.197-1.389 10.256-2.602 15.384-5.592a.158.158 0 00.013-.008c1.062-.744 1.276-.744 1.49-.744.854 0 .854.962.854 2.244l-.004 6.62c0 .4.505.584.759.274 4.265-5.208 9.514-8.368 14.077-8.368zm-41.756 36.04c1.623 0 2.894 1.465 2.894 3.337 0 1.616-.891 3.575-2.51 5.515-5.319 6.433-12.927 9.834-22 9.834-16.11 0-26.935-10.647-26.935-26.491 0-16.698 11.666-28.36 28.37-28.36 12.208 0 22.523 7.584 22.523 16.562 0 3.364-1.486 4.815-6.114 5.974l-28.218 7.263a.163.163 0 00-.116.184c1.28 7.706 5.97 15.115 14.681 15.115 4.528 0 9.216-2.195 13.203-6.18 2.337-2.338 2.861-2.754 4.223-2.754zM79.576 49.036l.203.16 16.375-5.177c3.228-1.077 4.163-1.99 4.163-4.069 0-4.486-3.798-8.137-8.467-8.137-2.727 0-5.623 1.442-7.748 3.857-3.413 3.88-4.203 8.934-4.526 13.366z"/></svg>